<svg width="100" height="16" viewBox="0 0 100 16" fill="none" xmlns="http://www.w3.org/2000/svg">
<path d="M7.68333 1.53003C7.71254 1.471 7.75768 1.42132 7.81363 1.38658C7.86959 1.35184 7.93414 1.33344 8 1.33344C8.06586 1.33344 8.13041 1.35184 8.18636 1.38658C8.24232 1.42132 8.28745 1.471 8.31666 1.53003L9.85666 4.64936C9.95811 4.85468 10.1079 5.0323 10.2931 5.167C10.4783 5.3017 10.6934 5.38944 10.92 5.4227L14.364 5.9267C14.4293 5.93615 14.4906 5.96368 14.541 6.00616C14.5914 6.04865 14.6289 6.1044 14.6493 6.1671C14.6697 6.22981 14.6722 6.29697 14.6564 6.36099C14.6406 6.42501 14.6072 6.48333 14.56 6.52936L12.0693 8.9547C11.9051 9.11477 11.7822 9.31235 11.7112 9.53045C11.6403 9.74855 11.6234 9.98062 11.662 10.2067L12.25 13.6334C12.2615 13.6986 12.2545 13.7657 12.2297 13.8272C12.2049 13.8886 12.1633 13.9418 12.1097 13.9807C12.0561 14.0196 11.9926 14.0427 11.9266 14.0473C11.8605 14.0519 11.7945 14.0378 11.736 14.0067L8.65733 12.388C8.45447 12.2815 8.22878 12.2259 7.99966 12.2259C7.77054 12.2259 7.54485 12.2815 7.342 12.388L4.264 14.0067C4.20555 14.0376 4.13959 14.0516 4.07363 14.0469C4.00767 14.0422 3.94434 14.0191 3.89086 13.9802C3.83738 13.9413 3.79589 13.8882 3.7711 13.8268C3.74632 13.7655 3.73924 13.6985 3.75066 13.6334L4.338 10.2074C4.37679 9.98119 4.35999 9.74896 4.28902 9.53073C4.21806 9.31249 4.09507 9.1148 3.93066 8.9547L1.44 6.53003C1.39239 6.48405 1.35866 6.42563 1.34264 6.36141C1.32662 6.2972 1.32895 6.22978 1.34938 6.16682C1.36981 6.10387 1.40751 6.04793 1.45818 6.00535C1.50885 5.96278 1.57047 5.9353 1.636 5.92603L5.07933 5.4227C5.30617 5.3897 5.52159 5.30207 5.70705 5.16736C5.89252 5.03264 6.04247 4.85488 6.144 4.64936L7.68333 1.53003Z" fill="#F7B634" stroke="#F7B634" stroke-width="1.33333" stroke-linecap="round" stroke-linejoin="round"/>
<path d="M27.6833 1.53003C27.7125 1.471 27.7577 1.42132 27.8136 1.38658C27.8696 1.35184 27.9341 1.33344 28 1.33344C28.0659 1.33344 28.1304 1.35184 28.1864 1.38658C28.2423 1.42132 28.2874 1.471 28.3167 1.53003L29.8567 4.64936C29.9581 4.85468 30.1079 5.0323 30.2931 5.167C30.4783 5.3017 30.6934 5.38944 30.92 5.4227L34.364 5.9267C34.4293 5.93615 34.4906 5.96368 34.541 6.00616C34.5914 6.04865 34.6289 6.1044 34.6493 6.1671C34.6697 6.22981 34.6722 6.29697 34.6564 6.36099C34.6406 6.42501 34.6072 6.48333 34.56 6.52936L32.0693 8.9547C31.9051 9.11477 31.7822 9.31235 31.7112 9.53045C31.6403 9.74855 31.6234 9.98062 31.662 10.2067L32.25 13.6334C32.2615 13.6986 32.2545 13.7657 32.2297 13.8272C32.2049 13.8886 32.1633 13.9418 32.1097 13.9807C32.0561 14.0196 31.9926 14.0427 31.9266 14.0473C31.8605 14.0519 31.7945 14.0378 31.736 14.0067L28.6573 12.388C28.4545 12.2815 28.2288 12.2259 27.9997 12.2259C27.7705 12.2259 27.5449 12.2815 27.342 12.388L24.264 14.0067C24.2056 14.0376 24.1396 14.0516 24.0736 14.0469C24.0077 14.0422 23.9443 14.0191 23.8909 13.9802C23.8374 13.9413 23.7959 13.8882 23.7711 13.8268C23.7463 13.7655 23.7392 13.6985 23.7507 13.6334L24.338 10.2074C24.3768 9.98119 24.36 9.74896 24.289 9.53073C24.2181 9.31249 24.0951 9.1148 23.9307 8.9547L21.44 6.53003C21.3924 6.48405 21.3587 6.42563 21.3426 6.36141C21.3266 6.2972 21.329 6.22978 21.3494 6.16682C21.3698 6.10387 21.4075 6.04793 21.4582 6.00535C21.5089 5.96278 21.5705 5.9353 21.636 5.92603L25.0793 5.4227C25.3062 5.3897 25.5216 5.30207 25.7071 5.16736C25.8925 5.03264 26.0425 4.85488 26.144 4.64936L27.6833 1.53003Z" fill="#F7B634" stroke="#F7B634" stroke-width="1.33333" stroke-linecap="round" stroke-linejoin="round"/>
<path d="M47.6833 1.53003C47.7126 1.471 47.7577 1.42132 47.8136 1.38658C47.8696 1.35184 47.9341 1.33344 48 1.33344C48.0659 1.33344 48.1304 1.35184 48.1864 1.38658C48.2423 1.42132 48.2875 1.471 48.3167 1.53003L49.8567 4.64936C49.9581 4.85468 50.1079 5.0323 50.2931 5.167C50.4783 5.3017 50.6934 5.38944 50.92 5.4227L54.364 5.9267C54.4293 5.93615 54.4906 5.96368 54.541 6.00616C54.5914 6.04865 54.629 6.1044 54.6494 6.1671C54.6697 6.22981 54.6722 6.29697 54.6564 6.36099C54.6406 6.42501 54.6072 6.48333 54.56 6.52936L52.0693 8.9547C51.9051 9.11477 51.7822 9.31235 51.7112 9.53045C51.6403 9.74855 51.6234 9.98062 51.662 10.2067L52.25 13.6334C52.2615 13.6986 52.2545 13.7657 52.2297 13.8272C52.2049 13.8886 52.1633 13.9418 52.1097 13.9807C52.0561 14.0196 51.9927 14.0427 51.9266 14.0473C51.8605 14.0519 51.7945 14.0378 51.736 14.0067L48.6573 12.388C48.4545 12.2815 48.2288 12.2259 47.9997 12.2259C47.7706 12.2259 47.5449 12.2815 47.342 12.388L44.264 14.0067C44.2056 14.0376 44.1396 14.0516 44.0736 14.0469C44.0077 14.0422 43.9443 14.0191 43.8909 13.9802C43.8374 13.9413 43.7959 13.8882 43.7711 13.8268C43.7463 13.7655 43.7392 13.6985 43.7507 13.6334L44.338 10.2074C44.3768 9.98119 44.36 9.74896 44.289 9.53073C44.2181 9.31249 44.0951 9.1148 43.9307 8.9547L41.44 6.53003C41.3924 6.48405 41.3587 6.42563 41.3426 6.36141C41.3266 6.2972 41.329 6.22978 41.3494 6.16682C41.3698 6.10387 41.4075 6.04793 41.4582 6.00535C41.5089 5.96278 41.5705 5.9353 41.636 5.92603L45.0793 5.4227C45.3062 5.3897 45.5216 5.30207 45.7071 5.16736C45.8925 5.03264 46.0425 4.85488 46.144 4.64936L47.6833 1.53003Z" fill="#F7B634" stroke="#F7B634" stroke-width="1.33333" stroke-linecap="round" stroke-linejoin="round"/>
<path d="M67.6833 1.53003C67.7126 1.471 67.7577 1.42132 67.8136 1.38658C67.8696 1.35184 67.9341 1.33344 68 1.33344C68.0659 1.33344 68.1304 1.35184 68.1864 1.38658C68.2423 1.42132 68.2875 1.471 68.3167 1.53003L69.8567 4.64936C69.9581 4.85468 70.1079 5.0323 70.2931 5.167C70.4783 5.3017 70.6934 5.38944 70.92 5.4227L74.364 5.9267C74.4293 5.93615 74.4906 5.96368 74.541 6.00616C74.5914 6.04865 74.629 6.1044 74.6494 6.1671C74.6697 6.22981 74.6722 6.29697 74.6564 6.36099C74.6406 6.42501 74.6072 6.48333 74.56 6.52936L72.0693 8.9547C71.9051 9.11477 71.7822 9.31235 71.7112 9.53045C71.6403 9.74855 71.6234 9.98062 71.662 10.2067L72.25 13.6334C72.2615 13.6986 72.2545 13.7657 72.2297 13.8272C72.2049 13.8886 72.1633 13.9418 72.1097 13.9807C72.0561 14.0196 71.9927 14.0427 71.9266 14.0473C71.8605 14.0519 71.7945 14.0378 71.736 14.0067L68.6573 12.388C68.4545 12.2815 68.2288 12.2259 67.9997 12.2259C67.7706 12.2259 67.5449 12.2815 67.342 12.388L64.264 14.0067C64.2056 14.0376 64.1396 14.0516 64.0736 14.0469C64.0077 14.0422 63.9443 14.0191 63.8909 13.9802C63.8374 13.9413 63.7959 13.8882 63.7711 13.8268C63.7463 13.7655 63.7392 13.6985 63.7507 13.6334L64.338 10.2074C64.3768 9.98119 64.36 9.74896 64.289 9.53073C64.2181 9.31249 64.0951 9.1148 63.9307 8.9547L61.44 6.53003C61.3924 6.48405 61.3587 6.42563 61.3426 6.36141C61.3266 6.2972 61.329 6.22978 61.3494 6.16682C61.3698 6.10387 61.4075 6.04793 61.4582 6.00535C61.5089 5.96278 61.5705 5.9353 61.636 5.92603L65.0793 5.4227C65.3062 5.3897 65.5216 5.30207 65.7071 5.16736C65.8925 5.03264 66.0425 4.85488 66.144 4.64936L67.6833 1.53003Z" fill="#F7B634" stroke="#F7B634" stroke-width="1.33333" stroke-linecap="round" stroke-linejoin="round"/>
<path d="M87.6833 1.53003C87.7126 1.471 87.7577 1.42132 87.8136 1.38658C87.8696 1.35184 87.9341 1.33344 88 1.33344C88.0659 1.33344 88.1304 1.35184 88.1864 1.38658C88.2423 1.42132 88.2875 1.471 88.3167 1.53003L89.8567 4.64936C89.9581 4.85468 90.1079 5.0323 90.2931 5.167C90.4783 5.3017 90.6934 5.38944 90.92 5.4227L94.364 5.9267C94.4293 5.93615 94.4906 5.96368 94.541 6.00616C94.5914 6.04865 94.629 6.1044 94.6494 6.1671C94.6697 6.22981 94.6722 6.29697 94.6564 6.36099C94.6406 6.42501 94.6072 6.48333 94.56 6.52936L92.0693 8.9547C91.9051 9.11477 91.7822 9.31235 91.7112 9.53045C91.6403 9.74855 91.6234 9.98062 91.662 10.2067L92.25 13.6334C92.2615 13.6986 92.2545 13.7657 92.2297 13.8272C92.2049 13.8886 92.1633 13.9418 92.1097 13.9807C92.0561 14.0196 91.9927 14.0427 91.9266 14.0473C91.8605 14.0519 91.7945 14.0378 91.736 14.0067L88.6573 12.388C88.4545 12.2815 88.2288 12.2259 87.9997 12.2259C87.7706 12.2259 87.5449 12.2815 87.342 12.388L84.264 14.0067C84.2056 14.0376 84.1396 14.0516 84.0736 14.0469C84.0077 14.0422 83.9443 14.0191 83.8909 13.9802C83.8374 13.9413 83.7959 13.8882 83.7711 13.8268C83.7463 13.7655 83.7392 13.6985 83.7507 13.6334L84.338 10.2074C84.3768 9.98119 84.36 9.74896 84.289 9.53073C84.2181 9.31249 84.0951 9.1148 83.9307 8.9547L81.44 6.53003C81.3924 6.48405 81.3587 6.42563 81.3426 6.36141C81.3266 6.2972 81.329 6.22978 81.3494 6.16682C81.3698 6.10387 81.4075 6.04793 81.4582 6.00535C81.5089 5.96278 81.5705 5.9353 81.636 5.92603L85.0793 5.4227C85.3062 5.3897 85.5216 5.30207 85.7071 5.16736C85.8925 5.03264 86.0425 4.85488 86.144 4.64936L87.6833 1.53003Z" fill="#F7B634" stroke="#F7B634" stroke-width="1.33333" stroke-linecap="round" stroke-linejoin="round"/>
</svg>
