<svg width="32" height="32" viewBox="0 0 32 32" fill="none" xmlns="http://www.w3.org/2000/svg">
<path d="M0 10C0 4.47715 4.47715 0 10 0H22C27.5228 0 32 4.47715 32 10V22C32 27.5228 27.5228 32 22 32H10C4.47715 32 0 27.5228 0 22V10Z" fill="url(#paint0_linear_203_5440)"/>
<path d="M15.3335 19.3333L16.6668 20.6667C16.7982 20.798 16.9541 20.9021 17.1256 20.9732C17.2972 21.0443 17.4811 21.0809 17.6668 21.0809C17.8525 21.0809 18.0364 21.0443 18.208 20.9732C18.3796 20.9021 18.5355 20.798 18.6668 20.6667C18.7982 20.5353 18.9023 20.3794 18.9734 20.2079C19.0445 20.0363 19.081 19.8524 19.081 19.6667C19.081 19.4809 19.0445 19.297 18.9734 19.1255C18.9023 18.9539 18.7982 18.798 18.6668 18.6667" stroke="#FFB800" stroke-width="1.33333" stroke-linecap="round" stroke-linejoin="round"/>
<path d="M17.3335 17.3333L19.0002 19C19.2654 19.2652 19.6251 19.4142 20.0002 19.4142C20.3752 19.4142 20.7349 19.2652 21.0002 19C21.2654 18.7348 21.4144 18.3751 21.4144 18C21.4144 17.6249 21.2654 17.2652 21.0002 17L18.4135 14.4133C18.0385 14.0388 17.5302 13.8284 17.0002 13.8284C16.4701 13.8284 15.9618 14.0388 15.5868 14.4133L15.0002 15C14.7349 15.2652 14.3752 15.4142 14.0002 15.4142C13.6251 15.4142 13.2654 15.2652 13.0002 15C12.7349 14.7348 12.5859 14.3751 12.5859 14C12.5859 13.6249 12.7349 13.2652 13.0002 13L14.8735 11.1267C15.4816 10.5201 16.2747 10.1337 17.1272 10.0286C17.9797 9.9236 18.8429 10.1059 19.5802 10.5467L19.8935 10.7333C20.1773 10.9047 20.5148 10.9641 20.8402 10.9L22.0002 10.6667" stroke="#FFB800" stroke-width="1.33333" stroke-linecap="round" stroke-linejoin="round"/>
<path d="M22.0002 10L22.6668 17.3333H21.3335" stroke="#FFB800" stroke-width="1.33333" stroke-linecap="round" stroke-linejoin="round"/>
<path d="M10.0002 10L9.3335 17.3333L13.6668 21.6667C13.932 21.9319 14.2918 22.0809 14.6668 22.0809C15.0419 22.0809 15.4016 21.9319 15.6668 21.6667C15.932 21.4014 16.081 21.0417 16.081 20.6667C16.081 20.2916 15.932 19.9319 15.6668 19.6667" stroke="#FFB800" stroke-width="1.33333" stroke-linecap="round" stroke-linejoin="round"/>
<path d="M10 10.6667H15.3333" stroke="#FFB800" stroke-width="1.33333" stroke-linecap="round" stroke-linejoin="round"/>
<defs>
<linearGradient id="paint0_linear_203_5440" x1="0" y1="0" x2="32" y2="32" gradientUnits="userSpaceOnUse">
<stop stop-color="#FFB800" stop-opacity="0.1"/>
<stop offset="1" stop-color="#FFB800" stop-opacity="0.05"/>
</linearGradient>
</defs>
</svg>
