<svg width="18" height="18" viewBox="0 0 18 18" fill="none" xmlns="http://www.w3.org/2000/svg">
<path d="M11.847 7.34695L10.1953 9L11.8491 10.653C12.0076 10.8116 12.0966 11.0265 12.0966 11.2507C12.0966 11.4749 12.0076 11.6899 11.8491 11.8484C11.6906 12.0069 11.4756 12.0959 11.2514 12.0959C11.0272 12.0959 10.8123 12.0069 10.6538 11.8484L9 10.1953L7.34696 11.8491C7.18845 12.0076 6.97346 12.0966 6.7493 12.0966C6.52514 12.0966 6.31015 12.0076 6.15164 11.8491C5.99314 11.6906 5.90409 11.4756 5.90409 11.2514C5.90409 11.0272 5.99314 10.8123 6.15164 10.6538L7.80469 9L6.15305 7.34695C6.07456 7.26847 6.01231 7.17529 5.96983 7.07275C5.92735 6.9702 5.90549 6.86029 5.90549 6.7493C5.90549 6.52513 5.99454 6.31015 6.15305 6.15164C6.31156 5.99313 6.52654 5.90408 6.75071 5.90408C6.97487 5.90408 7.18985 5.99313 7.34836 6.15164L9 7.80469L10.653 6.15094C10.8116 5.99243 11.0265 5.90338 11.2507 5.90338C11.4749 5.90338 11.6899 5.99243 11.8484 6.15094C12.0069 6.30945 12.0959 6.52443 12.0959 6.74859C12.0959 6.97276 12.0069 7.18774 11.8484 7.34625L11.847 7.34695ZM16.5938 9C16.5938 10.5019 16.1484 11.9701 15.314 13.2189C14.4796 14.4676 13.2936 15.441 11.906 16.0157C10.5184 16.5905 8.99158 16.7408 7.51854 16.4478C6.04549 16.1548 4.69242 15.4316 3.63041 14.3696C2.56841 13.3076 1.84517 11.9545 1.55217 10.4815C1.25916 9.00842 1.40954 7.48157 1.98429 6.094C2.55905 4.70642 3.53236 3.52044 4.78114 2.68603C6.02993 1.85162 7.4981 1.40625 9 1.40625C11.0133 1.40848 12.9435 2.20925 14.3671 3.63287C15.7907 5.0565 16.5915 6.9867 16.5938 9ZM14.9063 9C14.9063 7.83185 14.5599 6.68994 13.9109 5.71866C13.2619 4.74739 12.3395 3.99037 11.2602 3.54334C10.181 3.09631 8.99345 2.97934 7.84775 3.20724C6.70205 3.43513 5.64966 3.99765 4.82365 4.82365C3.99765 5.64965 3.43513 6.70205 3.20724 7.84775C2.97935 8.99345 3.09631 10.181 3.54334 11.2602C3.99037 12.3394 4.74739 13.2619 5.71867 13.9109C6.68994 14.5599 7.83186 14.9062 9 14.9062C10.5659 14.9046 12.0672 14.2818 13.1745 13.1745C14.2818 12.0672 14.9046 10.5659 14.9063 9Z" fill="#0A0AFF"/>
</svg>
