<svg width="40" height="40" viewBox="0 0 40 40" fill="none" xmlns="http://www.w3.org/2000/svg">
<path d="M0 20C0 8.95431 8.95431 0 20 0C31.0457 0 40 8.95431 40 20C40 31.0457 31.0457 40 20 40C8.95431 40 0 31.0457 0 20Z" fill="url(#paint0_linear_203_4127)"/>
<path d="M18.3253 18.0696C18.2424 17.8011 18.1281 17.5608 17.9822 17.3487C17.8397 17.1333 17.6674 16.9493 17.4652 16.7969C17.2663 16.6444 17.0376 16.5301 16.7791 16.4538C16.5206 16.3743 16.2389 16.3345 15.9339 16.3345C15.3871 16.3345 14.8999 16.4721 14.4723 16.7472C14.0447 17.0223 13.7083 17.4266 13.4631 17.9602C13.2211 18.4905 13.1001 19.1368 13.1001 19.8991C13.1001 20.6681 13.2211 21.3194 13.4631 21.853C13.705 22.3866 14.0414 22.7926 14.4723 23.071C14.9032 23.3461 15.4036 23.4837 15.9737 23.4837C16.4908 23.4837 16.9382 23.3842 17.3161 23.1854C17.6972 22.9865 17.9905 22.7048 18.196 22.3402C18.4015 21.9723 18.5043 21.5414 18.5043 21.0476L18.9219 21.1122H16.1577V19.6705H20.2891V20.8935C20.2891 21.7652 20.1035 22.5192 19.7322 23.1555C19.361 23.7919 18.8506 24.2824 18.201 24.6271C17.5514 24.9685 16.8056 25.1392 15.9638 25.1392C15.0258 25.1392 14.2022 24.9287 13.4929 24.5078C12.7869 24.0836 12.2351 23.482 11.8374 22.7031C11.4429 21.9209 11.2457 20.9929 11.2457 19.919C11.2457 19.0971 11.3617 18.3629 11.5938 17.7166C11.8291 17.0703 12.1572 16.5218 12.5781 16.071C12.9991 15.617 13.4929 15.2723 14.0597 15.0369C14.6264 14.7983 15.2429 14.679 15.9091 14.679C16.4725 14.679 16.9979 14.7618 17.4851 14.9276C17.9723 15.09 18.4048 15.322 18.7827 15.6236C19.1638 15.9252 19.477 16.2831 19.7223 16.6974C19.9676 17.1117 20.1283 17.5691 20.2045 18.0696H18.3253ZM21.9222 25V14.8182H23.7667V23.4538H28.2511V25H21.9222Z" fill="white"/>
<defs>
<linearGradient id="paint0_linear_203_4127" x1="20" y1="0" x2="20" y2="40" gradientUnits="userSpaceOnUse">
<stop stop-color="#0A0AFF"/>
<stop offset="1" stop-color="#7B5FFF"/>
</linearGradient>
</defs>
</svg>
