<svg width="40" height="40" viewBox="0 0 40 40" fill="none" xmlns="http://www.w3.org/2000/svg">
<rect width="40" height="40" rx="12" fill="url(#paint0_linear_203_4997)"/>
<path d="M20.0003 28.3334C24.6027 28.3334 28.3337 24.6024 28.3337 20C28.3337 15.3976 24.6027 11.6667 20.0003 11.6667C15.398 11.6667 11.667 15.3976 11.667 20C11.667 24.6024 15.398 28.3334 20.0003 28.3334Z" stroke="#C8AAFF" stroke-width="1.66667" stroke-linecap="round" stroke-linejoin="round"/>
<path d="M20 25C22.7614 25 25 22.7614 25 20C25 17.2386 22.7614 15 20 15C17.2386 15 15 17.2386 15 20C15 22.7614 17.2386 25 20 25Z" stroke="#C8AAFF" stroke-width="1.66667" stroke-linecap="round" stroke-linejoin="round"/>
<path d="M19.9997 21.6666C20.9201 21.6666 21.6663 20.9205 21.6663 20C21.6663 19.0795 20.9201 18.3333 19.9997 18.3333C19.0792 18.3333 18.333 19.0795 18.333 20C18.333 20.9205 19.0792 21.6666 19.9997 21.6666Z" stroke="#C8AAFF" stroke-width="1.66667" stroke-linecap="round" stroke-linejoin="round"/>
<defs>
<linearGradient id="paint0_linear_203_4997" x1="0" y1="0" x2="40" y2="40" gradientUnits="userSpaceOnUse">
<stop stop-color="#C8AAFF" stop-opacity="0.082"/>
<stop offset="1" stop-color="#C8AAFF" stop-opacity="0.03"/>
</linearGradient>
</defs>
</svg>
