<svg width="44" height="44" viewBox="0 0 44 44" fill="none" xmlns="http://www.w3.org/2000/svg">
<path d="M0 14C0 6.26801 6.26801 0 14 0H30C37.732 0 44 6.26801 44 14V30C44 37.732 37.732 44 30 44H14C6.26801 44 0 37.732 0 30V14Z" fill="url(#paint0_linear_203_4070)"/>
<path d="M27 13.6667H17C16.0795 13.6667 15.3333 14.4128 15.3333 15.3333V28.6667C15.3333 29.5871 16.0795 30.3333 17 30.3333H27C27.9205 30.3333 28.6667 29.5871 28.6667 28.6667V15.3333C28.6667 14.4128 27.9205 13.6667 27 13.6667Z" stroke="#7B5FFF" stroke-width="1.66667" stroke-linecap="round" stroke-linejoin="round"/>
<path d="M18.6667 17H25.3333" stroke="#7B5FFF" stroke-width="1.66667" stroke-linecap="round" stroke-linejoin="round"/>
<path d="M25.3333 23.6667V27" stroke="#7B5FFF" stroke-width="1.66667" stroke-linecap="round" stroke-linejoin="round"/>
<path d="M25.3333 20.3333H25.3417" stroke="#7B5FFF" stroke-width="1.66667" stroke-linecap="round" stroke-linejoin="round"/>
<path d="M22 20.3333H22.0083" stroke="#7B5FFF" stroke-width="1.66667" stroke-linecap="round" stroke-linejoin="round"/>
<path d="M18.6667 20.3333H18.675" stroke="#7B5FFF" stroke-width="1.66667" stroke-linecap="round" stroke-linejoin="round"/>
<path d="M22 23.6667H22.0083" stroke="#7B5FFF" stroke-width="1.66667" stroke-linecap="round" stroke-linejoin="round"/>
<path d="M18.6667 23.6667H18.675" stroke="#7B5FFF" stroke-width="1.66667" stroke-linecap="round" stroke-linejoin="round"/>
<path d="M22 27H22.0083" stroke="#7B5FFF" stroke-width="1.66667" stroke-linecap="round" stroke-linejoin="round"/>
<path d="M18.6667 27H18.675" stroke="#7B5FFF" stroke-width="1.66667" stroke-linecap="round" stroke-linejoin="round"/>
<defs>
<linearGradient id="paint0_linear_203_4070" x1="0" y1="0" x2="44" y2="44" gradientUnits="userSpaceOnUse">
<stop stop-color="#7B5FFF" stop-opacity="0.082"/>
<stop offset="1" stop-color="#7B5FFF" stop-opacity="0.03"/>
</linearGradient>
</defs>
</svg>
