<svg width="56" height="56" viewBox="0 0 56 56" fill="none" xmlns="http://www.w3.org/2000/svg">
<path d="M0 16C0 7.16344 7.16344 0 16 0H40C48.8366 0 56 7.16344 56 16V40C56 48.8366 48.8366 56 40 56H16C7.16344 56 0 48.8366 0 40V16Z" fill="url(#paint0_linear_229_7633)"/>
<path d="M25.5933 32.0833C25.4891 31.6796 25.2787 31.3111 24.9838 31.0163C24.689 30.7214 24.3205 30.511 23.9168 30.4068L16.7593 28.5612C16.6371 28.5265 16.5297 28.453 16.4531 28.3517C16.3766 28.2504 16.3352 28.1269 16.3352 28C16.3352 27.8731 16.3766 27.7496 16.4531 27.6483C16.5297 27.547 16.6371 27.4735 16.7593 27.4388L23.9168 25.592C24.3204 25.4879 24.6887 25.2777 24.9836 24.983C25.2784 24.6884 25.4889 24.3202 25.5933 23.9167L27.4389 16.7592C27.4732 16.6366 27.5467 16.5286 27.6481 16.4516C27.7496 16.3747 27.8734 16.333 28.0007 16.333C28.128 16.333 28.2518 16.3747 28.3532 16.4516C28.4546 16.5286 28.5281 16.6366 28.5624 16.7592L30.4069 23.9167C30.5111 24.3204 30.7215 24.6889 31.0164 24.9837C31.3112 25.2786 31.6797 25.489 32.0834 25.5932L39.2409 27.4377C39.364 27.4716 39.4726 27.545 39.5499 27.6466C39.6273 27.7482 39.6692 27.8723 39.6692 28C39.6692 28.1277 39.6273 28.2518 39.5499 28.3534C39.4726 28.455 39.364 28.5284 39.2409 28.5623L32.0834 30.4068C31.6797 30.511 31.3112 30.7214 31.0164 31.0163C30.7215 31.3111 30.5111 31.6796 30.4069 32.0833L28.5613 39.2408C28.527 39.3634 28.4535 39.4714 28.3521 39.5484C28.2506 39.6253 28.1268 39.667 27.9995 39.667C27.8722 39.667 27.7484 39.6253 27.647 39.5484C27.5455 39.4714 27.4721 39.3634 27.4378 39.2408L25.5933 32.0833Z" stroke="#0A0AFF" stroke-width="2.33333" stroke-linecap="round" stroke-linejoin="round"/>
<path d="M37.3333 17.5V22.1667" stroke="#0A0AFF" stroke-width="2.33333" stroke-linecap="round" stroke-linejoin="round"/>
<path d="M39.6667 19.8333H35" stroke="#0A0AFF" stroke-width="2.33333" stroke-linecap="round" stroke-linejoin="round"/>
<path d="M18.6667 33.8333V36.1667" stroke="#0A0AFF" stroke-width="2.33333" stroke-linecap="round" stroke-linejoin="round"/>
<path d="M19.8333 35H17.5" stroke="#0A0AFF" stroke-width="2.33333" stroke-linecap="round" stroke-linejoin="round"/>
<defs>
<linearGradient id="paint0_linear_229_7633" x1="0" y1="0" x2="56" y2="56" gradientUnits="userSpaceOnUse">
<stop stop-color="#0A0AFF" stop-opacity="0.1"/>
<stop offset="1" stop-color="#7B5FFF" stop-opacity="0.08"/>
</linearGradient>
</defs>
</svg>
