<svg width="128" height="128" viewBox="0 0 128 128" fill="none" xmlns="http://www.w3.org/2000/svg">
<g opacity="0.05">
<path d="M58.6667 115.893C60.2882 116.83 62.1276 117.323 64 117.323C65.8724 117.323 67.7118 116.83 69.3333 115.893L106.667 94.5601C108.287 93.6249 109.632 92.28 110.568 90.6606C111.504 89.0411 111.998 87.204 112 85.3335V42.6668C111.998 40.7963 111.504 38.9591 110.568 37.3397C109.632 35.7202 108.287 34.3754 106.667 33.4401L69.3333 12.1068C67.7118 11.1706 65.8724 10.6777 64 10.6777C62.1276 10.6777 60.2882 11.1706 58.6667 12.1068L21.3333 33.4401C19.7134 34.3754 18.3679 35.7202 17.4318 37.3397C16.4957 38.9591 16.0019 40.7963 16 42.6668V85.3335C16.0019 87.204 16.4957 89.0411 17.4318 90.6606C18.3679 92.28 19.7134 93.6249 21.3333 94.5601L58.6667 115.893Z" stroke="#FF9AA2" stroke-width="10.6667" stroke-linecap="round" stroke-linejoin="round"/>
<path d="M64 117.333V64" stroke="#FF9AA2" stroke-width="10.6667" stroke-linecap="round" stroke-linejoin="round"/>
<path d="M17.5469 37.3333L64.0002 64L110.454 37.3333" stroke="#FF9AA2" stroke-width="10.6667" stroke-linecap="round" stroke-linejoin="round"/>
<path d="M40 22.7734L88 50.2401" stroke="#FF9AA2" stroke-width="10.6667" stroke-linecap="round" stroke-linejoin="round"/>
</g>
</svg>
